<svg width="13" height="8" viewBox="0 0 13 8" xmlns="http://www.w3.org/2000/svg"><path d="M7.723 6.052c.442-.143 1.01.944 1.613 1.36.452.316.8.248.8.248l1.607-.023s.84-.052.444-.72c-.033-.055-.233-.495-1.197-1.4-1.009-.945-.872-.792.342-2.427.74-.997 1.035-1.606.942-1.866-.088-.25-.632-.184-.632-.184l-1.811.012c-.177 0-.326.055-.395.239 0 .002-.287.771-.669 1.425C7.961 4.1 7.64 4.174 7.506 4.087c-.306-.2-.229-.804-.229-1.233 0-1.342.2-1.9-.391-2.045-.198-.049-.343-.08-.847-.085-.645-.01-1.192 0-1.502.153-.206.103-.364.33-.268.342.12.017.39.074.535.272.185.255.18.828.18.828s.106 1.58-.25 1.775c-.245.135-.58-.14-1.298-1.396-.367-.643-.645-1.353-.645-1.353s-.054-.132-.15-.204c-.117-.086-.279-.113-.279-.113l-1.72.01s-.258.008-.353.122c-.084.101-.007.31-.007.31S1.63 4.655 3.155 6.26c1.398 1.474 2.987 1.376 2.987 1.376h.72s.218-.025.329-.144c.103-.111.099-.32.099-.32s-.015-.977.433-1.12Z"/></svg>