<svg xmlns="http://www.w3.org/2000/svg" fill="none" viewBox="0 0 100 20"><path fill="#fff" d="M86.91.28h2.78l3.2 13.3 3.2-13.3h2.46l-4.47 19.45h-2.37zm-1.12 0h2.64l.41 12.83v6.62h-3.05zm11.55 0h2.66v19.45h-3.05v-6.62zm-21.24 0 2.4 8.76 2.38-8.76h3.45l-4.24 12.39v7.06h-3.19v-7.06l-4.24-12.39zm-3.84 9.23v8.02q-.33.45-.98 1.03a6 6 0 0 1-4.19 1.44q-1.3 0-2.38-.5a5 5 0 0 1-1.82-1.54 8 8 0 0 1-1.16-2.6q-.4-1.56-.4-3.7v-3.31q0-2.1.38-3.67a8 8 0 0 1 1.12-2.62 4.7 4.7 0 0 1 4.07-2.06q1.77 0 2.9.73a4.5 4.5 0 0 1 1.73 2.18q.6 1.44.72 3.54h-3.06a7 7 0 0 0-.34-1.92q-.24-.7-.7-.99t-1.18-.3q-.62 0-1.09.27-.46.27-.78.89-.3.6-.46 1.57-.15.96-.15 2.35v3.34q0 1.38.17 2.35t.5 1.6q.36.6.87.89.53.27 1.25.27.57 0 .91-.15t.56-.3l.35-.27v-3.59h-2.26v-2.95zm-23.71-9.23h5.04q1.58 0 2.7.67a4.3 4.3 0 0 1 1.7 1.98q.6 1.3.6 3.23 0 1.57-.35 2.7a5 5 0 0 1-.98 1.85q-.64.75-1.53 1.18l-.96.7h-4.1v-3.24h2.84q.65 0 1.07-.35.43-.36.64-1 .21-.65.21-1.52 0-.92-.2-1.58a2 2 0 0 0-.59-1.01 1.5 1.5 0 0 0-1.05-.36h-1.88v16.2h-3.16zm7.14 19.45-2.88-8.67 3.31-.01 2.95 8.5v.18zm-9.78-3.23v3.23h-6.84v-3.23zm-5.86-16.22v19.45h-3.16v-19.45zm4.94 7.88v3.14h-5.92v-3.14zm.9-7.88v3.25h-6.82v-3.25zm-15.45 12.6h-3.22v-3.25h3.22q.67 0 1.1-.37.42-.38.62-1.03.2-.67.2-1.5 0-.84-.21-1.56a3 3 0 0 0-.62-1.19 1.4 1.4 0 0 0-1.09-.45h-2.2v16.2h-3.16v-19.45h5.36q1.59 0 2.73.83a5 5 0 0 1 1.76 2.28q.6 1.45.61 3.32 0 1.88-.61 3.27-.61 1.38-1.76 2.14-1.14.75-2.73.76m-10.94-12.6h3.16v13.36a9 9 0 0 1-.67 3.66 4.4 4.4 0 0 1-1.83 2.06q-1.17.64-2.67.64t-2.7-.64a4.4 4.4 0 0 1-1.83-2.06 9 9 0 0 1-.65-3.66v-13.36h3.16v13.36q0 1.27.23 1.95.23.69.68.94.45.24 1.11.24t1.1-.24q.45-.25.67-.94.24-.67.24-1.95zm-12.37 14.34q0-.53-.07-.95a2 2 0 0 0-.33-.8q-.23-.35-.7-.71-.45-.37-1.19-.75-.87-.45-1.7-.96a8 8 0 0 1-1.48-1.2 5.2 5.2 0 0 1-1.42-3.8q0-1.23.35-2.23a5 5 0 0 1 2.61-2.82 5.1 5.1 0 0 1 4.64.39 5 5 0 0 1 1.72 2.12q.6 1.36.61 3.1h-3.15q0-.83-.2-1.45a2 2 0 0 0-.6-1 1.6 1.6 0 0 0-1.05-.37q-.6 0-1 .31-.4.3-.6.82-.17.5-.18 1.14a2 2 0 0 0 .19.87q.19.38.53.68.33.3.79.58t1.01.55q1.08.52 1.9 1.15.81.6 1.37 1.38.54.77.83 1.73a8 8 0 0 1-.07 4.4 4.4 4.4 0 0 1-2.55 2.8q-.9.4-2.03.4a6 6 0 0 1-2.06-.37 4.9 4.9 0 0 1-2.88-3.16 9 9 0 0 1-.42-2.87h3.17a7 7 0 0 0 .14 1.51q.15.62.43.99.3.36.71.55.44.17.99.17.63 0 1-.3.36-.29.53-.78.16-.5.16-1.12"/></svg>